<mxfile host="app.diagrams.net" modified="2020-09-07T12:31:02.027Z" agent="5.0 (Windows NT 10.0; WOW64) AppleWebKit/537.36 (KHTML, like Gecko) Chrome/84.0.4147.135 Safari/537.36" etag="m4Ou91VDCX37Jd5E8YTR" version="13.1.1" type="github">
  <diagram id="prtHgNgQTEPvFCAcTncT" name="Page-1">
    <mxGraphModel dx="1422" dy="713" grid="1" gridSize="10" guides="1" tooltips="1" connect="1" arrows="1" fold="1" page="1" pageScale="1" pageWidth="827" pageHeight="1169" math="0" shadow="0">
      <root>
        <mxCell id="0" />
        <mxCell id="1" parent="0" />
        <mxCell id="Zx9HdxWzc3TvK8Gs6lof-6" style="edgeStyle=orthogonalEdgeStyle;rounded=0;orthogonalLoop=1;jettySize=auto;html=1;entryX=0.5;entryY=0;entryDx=0;entryDy=0;" edge="1" parent="1" source="Zx9HdxWzc3TvK8Gs6lof-1" target="Zx9HdxWzc3TvK8Gs6lof-4">
          <mxGeometry relative="1" as="geometry" />
        </mxCell>
        <mxCell id="Zx9HdxWzc3TvK8Gs6lof-1" value="开始" style="ellipse;whiteSpace=wrap;html=1;" vertex="1" parent="1">
          <mxGeometry x="357" y="110" width="116" height="40" as="geometry" />
        </mxCell>
        <mxCell id="Zx9HdxWzc3TvK8Gs6lof-2" value="结束" style="ellipse;whiteSpace=wrap;html=1;" vertex="1" parent="1">
          <mxGeometry x="357" y="430" width="116" height="40" as="geometry" />
        </mxCell>
        <mxCell id="Zx9HdxWzc3TvK8Gs6lof-5" value="Y" style="edgeStyle=orthogonalEdgeStyle;rounded=0;orthogonalLoop=1;jettySize=auto;html=1;exitX=0.5;exitY=1;exitDx=0;exitDy=0;entryX=0.5;entryY=0;entryDx=0;entryDy=0;" edge="1" parent="1" source="Zx9HdxWzc3TvK8Gs6lof-4">
          <mxGeometry relative="1" as="geometry">
            <mxPoint x="415" y="290" as="targetPoint" />
          </mxGeometry>
        </mxCell>
        <mxCell id="Zx9HdxWzc3TvK8Gs6lof-8" style="edgeStyle=orthogonalEdgeStyle;rounded=0;orthogonalLoop=1;jettySize=auto;html=1;entryX=1;entryY=0.5;entryDx=0;entryDy=0;" edge="1" parent="1" source="Zx9HdxWzc3TvK8Gs6lof-4" target="Zx9HdxWzc3TvK8Gs6lof-2">
          <mxGeometry relative="1" as="geometry">
            <Array as="points">
              <mxPoint x="590" y="215" />
              <mxPoint x="590" y="450" />
            </Array>
          </mxGeometry>
        </mxCell>
        <mxCell id="Zx9HdxWzc3TvK8Gs6lof-9" value="N" style="edgeLabel;html=1;align=center;verticalAlign=middle;resizable=0;points=[];" vertex="1" connectable="0" parent="Zx9HdxWzc3TvK8Gs6lof-8">
          <mxGeometry x="-0.1618" y="2" relative="1" as="geometry">
            <mxPoint as="offset" />
          </mxGeometry>
        </mxCell>
        <mxCell id="Zx9HdxWzc3TvK8Gs6lof-4" value="判断任务ID对应任务没有删除&amp;amp;&amp;amp;状态还是WATTING" style="rhombus;whiteSpace=wrap;html=1;" vertex="1" parent="1">
          <mxGeometry x="350" y="190" width="130" height="50" as="geometry" />
        </mxCell>
        <mxCell id="Zx9HdxWzc3TvK8Gs6lof-20" style="edgeStyle=orthogonalEdgeStyle;rounded=0;orthogonalLoop=1;jettySize=auto;html=1;entryX=0.5;entryY=0;entryDx=0;entryDy=0;" edge="1" parent="1" source="Zx9HdxWzc3TvK8Gs6lof-19" target="Zx9HdxWzc3TvK8Gs6lof-2">
          <mxGeometry relative="1" as="geometry" />
        </mxCell>
        <mxCell id="Zx9HdxWzc3TvK8Gs6lof-19" value="修改数据状态为取消" style="rounded=0;whiteSpace=wrap;html=1;" vertex="1" parent="1">
          <mxGeometry x="355" y="290" width="120" height="60" as="geometry" />
        </mxCell>
      </root>
    </mxGraphModel>
  </diagram>
</mxfile>
